<?xml version="1.0" encoding="UTF-8" standalone="no"?>
<!-- Created with Inkscape (http://www.inkscape.org/) -->

<svg
   width="210mm"
   height="297mm"
   viewBox="0 0 210 297"
   version="1.1"
   id="svg1"
   xml:space="preserve"
   inkscape:export-filename="bitkép.svg"
   inkscape:export-xdpi="96"
   inkscape:export-ydpi="96"
   xmlns:inkscape="http://www.inkscape.org/namespaces/inkscape"
   xmlns:sodipodi="http://sodipodi.sourceforge.net/DTD/sodipodi-0.dtd"
   xmlns="http://www.w3.org/2000/svg"
   xmlns:svg="http://www.w3.org/2000/svg"><sodipodi:namedview
     id="namedview1"
     pagecolor="#ffffff"
     bordercolor="#000000"
     borderopacity="0.25"
     inkscape:showpageshadow="2"
     inkscape:pageopacity="0.0"
     inkscape:pagecheckerboard="0"
     inkscape:deskcolor="#d1d1d1"
     inkscape:document-units="mm" /><defs
     id="defs1" /><g
     inkscape:label="Réteg 1"
     inkscape:groupmode="layer"
     id="layer1"><path
       style="fill:#000000"
       d="M 108.19389,213.49629 C 101.1225,208.24678 92.5224,201.75011 90.413891,200.06497 82.019505,193.35611 74.083281,184.4573 68.169522,175.12258 c -3.647464,-5.75743 -7.489751,-13.58483 -10.127321,-20.63111 -4.277117,-11.42632 -6.692116,-22.9563 -7.551486,-36.05322 -0.146541,-2.2333 -0.201336,-9.16339 -0.09138,-11.557 0.144497,-3.14552 0.467767,-6.75043 0.736992,-8.218465 l 0.04765,-0.2598 0.94596,-0.14721 c 0.520278,-0.081 1.802725,-0.3176 2.849883,-0.52585 12.593945,-2.50465 25.753708,-8.32444 38.439744,-16.99965 5.406309,-3.69705 11.096066,-8.2659 14.920426,-11.98102 l 1.16597,-1.13268 1.12414,1.09034 c 4.14287,4.01831 10.12964,8.77468 16.03147,12.7367 10.03541,6.73698 20.80489,11.87068 30.893,14.72637 2.96076,0.83811 6.73831,1.68279 9.3285,2.08588 l 0.9465,0.1473 0.0929,0.53368 c 0.15855,0.91048 0.41077,3.284775 0.56972,5.362985 0.21589,2.82297 0.21631,11.77777 6.8e-4,14.81575 -0.8844,12.46042 -3.19749,23.57406 -7.17204,34.45933 -3.0876,8.45615 -7.29419,16.8492 -11.87116,23.68549 -3.79734,5.67182 -8.01786,10.7859 -13.01392,15.76921 -3.30668,3.29825 -6.00666,5.653 -10.07035,8.78273 -3.83447,2.9532 -16.78964,12.65084 -16.87564,12.63233 -0.0142,-0.003 -0.59741,-0.42984 -1.29591,-0.94838 z m 5.03767,-4.42585 c 6.18709,-4.59266 12.64482,-9.506 14.72323,-11.20212 4.2094,-3.43513 9.17317,-8.33017 12.8483,-12.67041 3.77206,-4.4547 7.15688,-9.20316 9.86763,-13.843 1.68955,-2.8919 4.25986,-7.93289 5.74161,-11.26066 7.40856,-16.63849 10.97264,-35.77571 10.06798,-54.05967 -0.0839,-1.69455 -0.38313,-5.25243 -0.47165,-5.60695 -0.0342,-0.13712 -0.13093,-0.20258 -0.35589,-0.24094 -0.16988,-0.029 -1.16281,-0.222785 -2.2065,-0.430735 -12.25909,-2.44257 -25.30343,-8.11211 -37.72638,-16.39724 -5.39339,-3.59697 -11.04045,-8.0014 -15.3035,-11.93596 l -0.91016,-0.84004 v 70.631795 c 0,56.49371 0.0212,70.61502 0.10583,70.54796 0.0582,-0.0461 1.68698,-1.25753 3.6195,-2.69203 z m 0.15419,-22.27966 0.12949,-0.6508 10.0605,-13.44242 c 5.53327,-7.39333 10.06049,-13.46637 10.06049,-13.49565 0,-0.0293 -1.60973,-0.0374 -3.57717,-0.0181 -3.02023,0.0297 -3.65399,0.0573 -4.07061,0.1771 -1.24958,0.35937 -1.97126,0.91822 -3.1813,2.46348 -0.66462,0.84875 -2.58931,3.66754 -2.98528,4.37206 l -0.18682,0.33241 h -0.69726 -0.69725 l 0.0738,-0.27516 c 0.70422,-2.62744 2.36793,-8.89436 2.36793,-8.91962 0,-0.0186 4.6863,-0.0339 10.414,-0.0339 5.7277,0 10.414,0.0157 10.414,0.0349 0,0.0192 -0.0542,0.31826 -0.12049,0.66462 l -0.12049,0.62972 -10.06887,13.45356 -10.06888,13.45355 3.77586,0.0248 c 4.97043,0.0327 5.90223,-0.0756 6.95484,-0.8079 0.60477,-0.42075 1.68511,-1.76978 3.00037,-3.7466 0.90467,-1.3597 2.192,-3.43936 2.26551,-3.6599 0.0134,-0.0403 0.31284,-0.062 0.66535,-0.0482 l 0.64092,0.0251 -1.28538,4.826 c -0.70696,2.6543 -1.31101,4.93078 -1.34234,5.05883 l -0.057,0.23284 h -11.24671 -11.24671 z m 1.88228,-45.7677 c 0.002,-0.0582 0.0882,-0.52245 0.1905,-1.03165 l 0.18603,-0.92582 1.10067,-0.15612 c 1.96606,-0.27887 2.76885,-0.57921 3.39205,-1.26903 0.3514,-0.38895 0.72844,-1.16839 0.87228,-1.80321 0.0528,-0.23284 1.29978,-6.88129 2.77117,-14.77434 2.89344,-15.5214 2.9274,-15.73797 2.58002,-16.45557 -0.39376,-0.81339 -1.25769,-1.32974 -2.93264,-1.75275 -0.54974,-0.13884 -1.00542,-0.26119 -1.0126,-0.27189 -0.007,-0.0107 0.0686,-0.4576 0.16843,-0.99312 l 0.1815,-0.97367 h 10.11323 c 11.16738,0 10.90076,-0.0112 13.06757,0.54842 3.03277,0.78324 4.79621,2.33445 5.44033,4.78558 0.22072,0.83994 0.22179,3.25311 0.002,4.27567 -0.88057,4.09493 -4.01032,6.96691 -9.33064,8.56218 -0.51073,0.15314 -0.93266,0.28002 -0.93761,0.28196 -0.005,0.002 -0.0319,0.12418 -0.06,0.27164 l -0.051,0.26811 0.61031,0.10214 c 0.84143,0.14081 2.1181,0.52874 3.0207,0.91787 2.06733,0.89128 3.67696,2.39456 4.49446,4.1975 0.98041,2.16226 0.85962,5.99174 -0.27694,8.7795 -1.81174,4.44385 -6.24561,6.91949 -13.31658,7.43528 -1.84035,0.13424 -20.27894,0.11725 -20.2732,-0.0187 z m 19.00985,-2.47512 c 1.22638,-0.23464 2.29525,-0.86751 3.38579,-2.00469 1.74351,-1.81807 2.69833,-4.04287 3.00716,-7.00691 0.13834,-1.32771 0.0585,-3.32103 -0.16747,-4.1805 -0.59487,-2.26272 -2.0078,-3.64949 -4.30942,-4.22962 -0.64033,-0.1614 -0.96266,-0.18559 -2.44909,-0.18383 -0.94144,0.001 -1.73769,0.028 -1.76945,0.0598 -0.0318,0.0318 -0.68226,3.40169 -1.44556,7.48874 -0.97056,5.19676 -1.37763,7.5537 -1.35391,7.83911 0.0452,0.54432 0.38686,1.0216 1.05102,1.4684 1.16351,0.78271 2.54324,1.038 4.05093,0.74953 z m 1.63688,-20.36219 c 2.32516,-0.47384 4.1685,-1.86918 5.37081,-4.06552 0.79493,-1.45214 1.15236,-2.93382 1.21525,-5.03767 0.0665,-2.22649 -0.16376,-3.2327 -0.99056,-4.3278 -0.42515,-0.5631 -1.39196,-1.21052 -2.20562,-1.47698 -0.58196,-0.19058 -0.75953,-0.20655 -2.2959,-0.20655 -0.91583,0 -1.68589,0.0208 -1.71124,0.0461 -0.0428,0.0428 -2.84661,14.96779 -2.84661,15.15269 0,0.16227 2.55962,0.1 3.46387,-0.0843 z m -39.912869,69.84578 c 1.112218,-0.2335 1.95083,-0.51788 2.855369,-0.9683 3.03444,-1.511 5.09135,-4.16458 5.72925,-7.39122 0.64624,-3.26882 -0.0282,-5.84557 -2.03462,-7.77289 -1.04801,-1.00673 -1.80275,-1.43622 -5.478404,-3.11753 -2.09243,-0.95711 -2.830616,-1.45622 -3.532119,-2.38817 -0.893651,-1.18722 -1.10572,-2.77996 -0.588248,-4.41805 0.66941,-2.11906 2.621245,-3.44238 4.86198,-3.29636 1.23536,0.0805 2.049169,0.45892 2.998601,1.39436 1.25026,1.23182 2.083,3.2722 2.60877,6.39202 l 0.1962,1.16417 h 0.74083 c 0.69918,0 0.74323,-0.0107 0.78352,-0.1905 0.0434,-0.19378 1.73854,-10.04814 1.73854,-10.10679 0,-0.0176 -0.33253,-0.032 -0.73896,-0.032 h -0.73896 l -0.65018,0.64636 -0.65018,0.64636 -0.24069,-0.16997 c -0.68279,-0.48217 -2.60621,-1.28088 -3.82841,-1.58976 -2.262165,-0.57172 -4.950379,-0.3855 -6.995622,0.48461 -3.002138,1.27719 -5.081831,3.69517 -5.950833,6.91882 -0.199317,0.73938 -0.218655,0.95558 -0.220172,2.46158 -0.0019,1.90709 0.09625,2.40536 0.742881,3.77041 0.461492,0.97421 0.784497,1.44963 1.409664,2.07479 0.884352,0.88435 1.769935,1.38667 4.937731,2.80076 2.114391,0.94385 2.729159,1.30429 3.444289,2.01942 1.487215,1.48722 1.789072,3.8827 0.755004,5.99159 -1.031065,2.10276 -3.642436,3.19974 -6.112903,2.5679 -0.827589,-0.21166 -1.336215,-0.47423 -2.11035,-1.0894 -1.856338,-1.47517 -3.201299,-4.28042 -3.833934,-7.99664 l -0.05405,-0.3175 H 85.300948 84.55601 l -0.863511,5.22816 c -0.474931,2.8755 -0.88396,5.33295 -0.908953,5.461 l -0.04544,0.23284 h 0.745886 0.745886 l 0.729999,-0.72662 0.729999,-0.72662 0.457009,0.29193 c 1.426869,0.91146 3.384885,1.60497 5.325342,1.88617 1.145443,0.166 3.418983,0.0983 4.529667,-0.13489 z M 77.064304,140.13408 c 0.101446,-0.54716 0.184329,-1.02168 0.184184,-1.0545 -1.45e-4,-0.0328 -0.143138,-0.0822 -0.317763,-0.10984 -2.937882,-0.46428 -3.85219,-1.20275 -3.73183,-3.0141 0.0198,-0.29795 0.622865,-3.6945 1.340148,-7.54789 l 1.304152,-7.00617 h 6.846554 c 6.480978,0 6.844185,0.008 6.802201,0.14817 -0.02439,0.0815 -0.635832,3.34856 -1.358754,7.26016 -0.722921,3.9116 -1.395434,7.35192 -1.494473,7.64516 -0.359109,1.06325 -1.104782,1.82556 -2.085045,2.13157 -0.289417,0.0904 -1.069711,0.22422 -1.733986,0.29749 -0.664275,0.0733 -1.232115,0.16065 -1.261866,0.19417 -0.02975,0.0335 -0.118313,0.4229 -0.196805,0.86528 -0.07849,0.44238 -0.163812,0.89006 -0.1896,0.99483 l -0.04689,0.1905 h 8.879257 8.879257 l 0.187844,-1.03152 c 0.103315,-0.56734 0.178954,-1.04008 0.168088,-1.05055 -0.01087,-0.0105 -0.381165,-0.0812 -0.822888,-0.15725 -1.551381,-0.267 -2.307613,-0.57193 -2.817185,-1.13597 -0.405452,-0.44878 -0.516053,-0.88829 -0.460954,-1.83171 0.04042,-0.69212 5.32387,-29.43834 5.57098,-30.31066 0.12821,-0.45257 0.5243,-1.22765 0.78679,-1.5396 0.46402,-0.55146 1.91092,-1.06103 3.76694,-1.32664 l 0.72989,-0.10445 0.18185,-0.88532 c 0.10001,-0.48693 0.18574,-0.97105 0.1905,-1.07583 l 0.009,-0.1905 h -8.841659 -8.841664 l -0.0904,0.4445 c -0.275255,1.3534 -0.319463,1.68713 -0.227394,1.71665 0.05177,0.0166 0.475125,0.13033 0.940791,0.25274 1.672382,0.43963 2.665957,1.08624 2.907406,1.89213 0.203322,0.67863 0.107964,1.38263 -1.001119,7.39109 -0.604659,3.27574 -1.119735,6.04162 -1.144613,6.14639 l -0.04523,0.1905 h -6.823476 -6.823476 l 0.05073,-0.27516 c 1.209705,-6.56123 2.286327,-12.2347 2.389083,-12.58974 0.31605,-1.09201 0.907922,-1.87059 1.682489,-2.21321 0.470434,-0.2081 2.308755,-0.65419 2.978725,-0.72284 l 0.530509,-0.0543 0.08395,-0.43318 c 0.04617,-0.23825 0.138695,-0.71228 0.205599,-1.0534 0.08906,-0.45408 0.0959,-0.63003 0.02553,-0.65682 -0.05286,-0.0201 -4.039345,-0.0268 -8.858852,-0.0148 l -8.762739,0.0218 -0.143152,0.67733 c -0.07873,0.37253 -0.167032,0.85018 -0.19622,1.06143 l -0.05307,0.3841 0.534626,0.11014 c 2.657791,0.54754 3.746076,1.49967 3.592848,3.14333 -0.05141,0.55148 -5.381699,29.33994 -5.565101,30.05667 -0.314382,1.22858 -1.005354,2.1121 -1.925666,2.46227 -0.488346,0.18581 -1.805775,0.43823 -2.823928,0.54106 -0.644335,0.0651 -0.585454,-0.0176 -0.785626,1.103 -0.07486,0.4191 -0.15596,0.82867 -0.180214,0.91017 -0.0418,0.14045 0.418447,0.14816 8.836758,0.14816 h 8.880854 z"
       id="path1" /></g></svg>
